<?xml version="1.0" encoding="UTF-8"?>
<svg version="1.1" id="Layer_1" xmlns="http://www.w3.org/2000/svg" x="0px"
     y="0px"
     viewBox="0 0 54 46.9" style="enable-background:new 0 0 54 46.9;"
     xml:space="preserve">
<path
    d="M13.4,46.9H2c-1.1,0-2-0.9-2-2V17.6c0-1.1,0.9-2,2-2h11.4c1.1,0,2,0.9,2,2v27.3C15.4,46,14.5,46.9,13.4,46.9z"/>
    <path
        d="M32.7,46.9H21.3c-1.1,0-2-0.9-2-2V9.3c0-1.1,0.9-2,2-2h11.4c1.1,0,2,0.9,2,2v35.5C34.7,46,33.8,46.9,32.7,46.9z"/>
    <path
        d="M52,46.9H40.6c-1.1,0-2-0.9-2-2V2c0-1.1,0.9-2,2-2H52c1.1,0,2,0.9,2,2v42.9C54,46,53.1,46.9,52,46.9z"/>
</svg>
