<?xml version="1.0" encoding="UTF-8"?>
<svg xmlns="http://www.w3.org/2000/svg" viewBox="0 0 98.65 98.65">
    <title>Sprout Reports</title>
    <path style="fill:#47b649"
          d="M50,.67A49.33,49.33,0,1,0,99.33,50,49.35,49.35,0,0,0,50,.67ZM36.43,72.85H25a2,2,0,0,1-2-2V43.57a2,2,0,0,1,2-2H36.43a2,2,0,0,1,2,2V70.85A2,2,0,0,1,36.43,72.85Zm19.28,0H44.29a2,2,0,0,1-2-2V35.32a2,2,0,0,1,2-2H55.71a2,2,0,0,1,2,2V70.85A2,2,0,0,1,55.71,72.85Zm19.29,0H63.57a2,2,0,0,1-2-2V28a2,2,0,0,1,2-2H75a2,2,0,0,1,2,2V70.85A2,2,0,0,1,75,72.85Z"
          transform="translate(-0.67 -0.67)"/>
</svg>